<?xml version="1.0" standalone="no"?>
<!DOCTYPE svg PUBLIC "-//W3C//DTD SVG 20010904//EN"
 "http://www.w3.org/TR/2001/REC-SVG-20010904/DTD/svg10.dtd">
<svg version="1.0" xmlns="http://www.w3.org/2000/svg"
 width="287.000000pt" height="287.000000pt" viewBox="0 0 287.000000 287.000000"
 preserveAspectRatio="xMidYMid meet">
<metadata>
Created by potrace 1.14, written by Peter Selinger 2001-2017
</metadata>
<g transform="translate(0.000000,287.000000) scale(0.100000,-0.100000)"
fill="#000000" stroke="none">
<path d="M1550 1990 l0 -632 33 20 c17 11 257 149 532 307 275 159 506 293
513 299 9 9 -112 83 -524 321 -295 171 -540 312 -545 313 -5 2 -9 -258 -9
-628z"/>
<path d="M1228 2395 c-337 -57 -634 -289 -765 -599 -66 -155 -78 -221 -77
-416 0 -161 2 -182 27 -265 34 -113 93 -234 154 -316 46 -63 208 -229 224
-229 4 0 14 -6 21 -12 8 -7 23 -18 33 -24 233 -129 306 -149 550 -149 158 0
190 3 260 23 323 94 570 317 691 623 31 80 64 240 64 311 l0 53 -215 0 -215 0
0 -25 c-1 -55 -32 -169 -64 -235 -100 -202 -299 -324 -526 -325 -394 -1 -676
398 -546 772 47 136 151 257 274 321 86 44 127 57 210 65 l67 7 3 218 2 217
-47 -1 c-27 -1 -83 -7 -125 -14z"/>
</g>
</svg>
